<svg xmlns="http://www.w3.org/2000/svg" width="21" height="20" viewBox="0 0 21 20" fill="none">
  <g clip-path="url(#clip0_3498_551)">
    <path d="M20.0817 5.15506C19.9687 4.72945 19.7459 4.341 19.4355 4.02861C19.1252 3.71622 18.7382 3.49084 18.3133 3.37506C16.7542 2.95422 10.5 2.95422 10.5 2.95422C10.5 2.95422 4.24583 2.95422 2.68583 3.37506C2.26117 3.49105 1.87441 3.7165 1.56423 4.02888C1.25405 4.34125 1.03133 4.72959 0.918333 5.15506C0.5 6.72506 0.5 10.0001 0.5 10.0001C0.5 10.0001 0.5 13.2751 0.918333 14.8451C1.03132 15.2707 1.25415 15.6591 1.56449 15.9715C1.87484 16.2839 2.26181 16.5093 2.68667 16.6251C4.24583 17.0459 10.5 17.0459 10.5 17.0459C10.5 17.0459 16.7542 17.0459 18.3142 16.6251C18.7391 16.5093 19.1261 16.284 19.4364 15.9716C19.7468 15.6592 19.9696 15.2707 20.0825 14.8451C20.5 13.2751 20.5 10.0001 20.5 10.0001C20.5 10.0001 20.5 6.72506 20.0817 5.15506ZM8.45417 12.9734V7.02672L13.6817 10.0001L8.45417 12.9734Z" fill="#FF0000"/>
  </g>
  <defs>
    <clipPath id="clip0_3498_551">
      <rect width="20" height="20" fill="white" transform="translate(0.5)"/>
    </clipPath>
  </defs>
</svg>