<svg width="116" height="48" viewBox="0 0 116 48" fill="none"
  xmlns="http://www.w3.org/2000/svg">
  <path fill-rule="evenodd" clip-rule="evenodd" d="M0 24V48H58H116V24V0H58H0V24ZM113.68 24V45.6774H58H2.32V24V2.32258H58H113.68V24ZM93.0722 16.4137C89.7357 17.3276 87.3867 20.4615 87.3867 24C87.3867 30.4351 94.342 34.0126 100.05 30.5137C101.487 29.633 101.615 29.0446 100.577 28.1036C99.8864 27.4785 99.7758 27.4854 98.5466 28.236C97.7076 28.7481 96.5793 29.0299 95.3644 29.0307C93.6928 29.0323 93.3147 28.8643 91.981 27.5295C90.6664 26.213 90.48 25.8023 90.48 24.2199C90.48 20.8006 92.3573 18.8214 95.601 18.8199C96.9165 18.8191 97.7803 19.0738 98.653 19.7203L99.8706 20.6214L100.58 19.6978C101.501 18.4974 101.366 18.1695 99.5384 17.1681C97.5053 16.0537 95.3184 15.7986 93.0722 16.4137ZM14.3067 24.0399V31.8217L19.1071 31.685C23.7135 31.5538 23.9753 31.5012 25.5838 30.3821C30.5405 26.9326 29.9678 19.4915 24.5533 16.9897C23.3446 16.4311 22.0562 16.2732 18.6567 16.2666L14.3067 16.2581V24.0399ZM31.7067 24V31.7419H33.06H34.4133V29.4194V27.0968H36.5137H38.6145L39.8897 29.4194C41.144 31.7036 41.1928 31.7419 42.8388 31.7419C44.075 31.7419 44.4361 31.6154 44.2215 31.2581C44.0614 30.9921 43.3473 29.8552 42.6339 28.7323L41.337 26.6903L42.5078 25.704C45.5215 23.1654 44.5977 18.0867 40.8649 16.6711C40.2663 16.4439 37.9606 16.2581 35.7415 16.2581H31.7067V24ZM56.84 17.6001V18.9422L61.1192 19.0517L65.3985 19.1613L60.9259 24.4599C57.7618 28.2089 56.4533 30.0488 56.4533 30.7502V31.7419H63.2444H70.0358L69.9144 30.4839L69.7933 29.2258L65.3064 29.0323L60.8192 28.8387L65.2098 23.6795C68.6279 19.6622 69.6 18.2694 69.6 17.3892V16.2581H63.22H56.84V17.6001ZM76.495 18.0739C76.0469 19.0978 74.5733 22.4404 73.22 25.5015C71.867 28.5627 70.76 31.2194 70.76 31.4048C70.76 31.5902 71.4282 31.7419 72.2448 31.7419C73.6341 31.7419 73.7625 31.6425 74.24 30.1935L74.7504 28.6452H78.7064H82.6628L83.2814 30.1935C83.8595 31.6394 84.0029 31.7419 85.4502 31.7419C86.3025 31.7419 87 31.6665 87 31.5739C87 31.4814 85.5438 28.0413 83.764 23.9288L80.528 16.4516L78.9191 16.332C77.3326 16.2139 77.2985 16.2387 76.495 18.0739ZM24.2104 20.239C25.3325 21.2686 25.6364 21.869 25.8081 23.3938C26.2249 27.0937 24.2107 29.0323 19.9505 29.0323H17.4V24V18.9677H20.1125C22.6393 18.9677 22.9193 19.0548 24.2104 20.239ZM40.5138 19.5704C41.1514 20.0172 41.3733 20.5614 41.3733 21.6774C41.3733 23.7735 40.3908 24.3871 37.0338 24.3871H34.4133V21.6774V18.9677H37.0338C38.78 18.9677 39.9415 19.169 40.5138 19.5704ZM80.347 23.129L81.5117 25.9355H78.8011C76.7885 25.9355 76.1401 25.8108 76.282 25.4516C78.0502 20.9841 78.6449 19.7427 78.8893 20.0063C79.0505 20.1801 79.7067 21.5857 80.347 23.129ZM46.4 30.3871C46.4 31.6343 46.492 31.7419 47.56 31.7419C48.628 31.7419 48.72 31.6343 48.72 30.3871C48.72 29.1399 48.628 29.0323 47.56 29.0323C46.492 29.0323 46.4 29.1399 46.4 30.3871Z" fill="#181818"/>
</svg>
